<svg width="1031" height="182" viewBox="0 0 1031 182" fill="none" xmlns="http://www.w3.org/2000/svg">
<rect width="1031" height="182" fill="white"/>
<path d="M64.936 127L73.336 76.712H57.096L58.328 69.208H83.304L80.728 84.664H81.288C82.2587 82.3493 83.3787 80.2587 84.648 78.392C85.9173 76.4507 87.3733 74.808 89.016 73.464C90.7333 72.12 92.6747 71.0747 94.84 70.328C97.0053 69.5813 99.4693 69.208 102.232 69.208H110.968L109.512 77.944H99.656C96.296 77.944 93.496 78.4293 91.256 79.4C89.016 80.296 87.0373 81.752 85.32 83.768C84.9467 84.216 84.424 84.8507 83.752 85.672C83.1547 86.4187 82.52 87.352 81.848 88.472C81.176 89.592 80.5413 90.8613 79.944 92.28C79.4213 93.6987 79.0107 95.2293 78.712 96.872L73.672 127H64.936ZM143.18 128.344C135.863 128.344 130.226 126.328 126.268 122.296C122.311 118.189 120.332 111.955 120.332 103.592C120.332 98.3653 121.116 93.5867 122.684 89.256C124.252 84.8507 126.418 81.08 129.18 77.944C132.018 74.7333 135.378 72.2693 139.26 70.552C143.218 68.76 147.511 67.864 152.14 67.864C154.978 67.864 157.591 68.2 159.98 68.872C162.37 69.544 164.423 70.552 166.14 71.896C167.932 73.1653 169.314 74.7707 170.284 76.712C171.255 78.6533 171.74 80.8933 171.74 83.432C171.74 85.448 171.255 87.5387 170.284 89.704C169.388 91.8693 167.447 93.8853 164.46 95.752C161.548 97.6187 157.292 99.1867 151.692 100.456C146.167 101.725 138.812 102.472 129.628 102.696C129.554 103.293 129.516 103.853 129.516 104.376C129.516 104.824 129.516 105.123 129.516 105.272C129.516 107.288 129.703 109.229 130.076 111.096C130.45 112.963 131.159 114.643 132.204 116.136C133.25 117.555 134.706 118.712 136.572 119.608C138.439 120.429 140.903 120.84 143.964 120.84C146.055 120.84 147.922 120.616 149.564 120.168C151.282 119.645 152.887 118.899 154.38 117.928C155.948 116.883 157.442 115.576 158.86 114.008C160.354 112.365 161.922 110.387 163.564 108.072L169.724 111.88C166.439 117.256 162.706 121.363 158.524 124.2C154.418 126.963 149.303 128.344 143.18 128.344ZM151.356 75.144C145.532 75.144 140.791 76.8987 137.132 80.408C133.474 83.9173 131.234 88.9573 130.412 95.528L130.3 96.648C137.319 96.424 142.956 95.9013 147.212 95.08C151.543 94.184 154.828 93.1387 157.068 91.944C159.383 90.7493 160.914 89.4427 161.66 88.024C162.407 86.6053 162.78 85.1867 162.78 83.768C162.78 82.5733 162.556 81.4533 162.108 80.408C161.735 79.3627 161.1 78.4667 160.204 77.72C159.308 76.8987 158.114 76.264 156.62 75.816C155.202 75.368 153.447 75.144 151.356 75.144ZM209.329 128.344C203.729 128.344 198.838 127.411 194.657 125.544C190.55 123.677 187.227 120.989 184.689 117.48L191.185 112.328C193.425 115.165 196.038 117.331 199.025 118.824C202.011 120.243 205.707 120.952 210.113 120.952C215.265 120.952 219.297 119.981 222.209 118.04C225.121 116.099 226.577 113.373 226.577 109.864C226.577 107.176 225.755 105.347 224.113 104.376C222.545 103.331 220.566 102.621 218.177 102.248L209.777 101.016C207.686 100.717 205.595 100.307 203.505 99.784C201.489 99.1867 199.659 98.328 198.017 97.208C196.449 96.088 195.142 94.6693 194.096 92.952C193.126 91.16 192.641 88.92 192.641 86.232C192.641 83.1707 193.275 80.52 194.545 78.28C195.889 75.9653 197.681 74.0613 199.921 72.568C202.161 71 204.774 69.8427 207.761 69.096C210.747 68.2747 213.958 67.864 217.393 67.864C222.47 67.864 226.801 68.648 230.385 70.216C233.969 71.784 236.843 73.9493 239.009 76.712L232.849 82.088C232.326 81.3413 231.617 80.5573 230.721 79.736C229.899 78.9147 228.817 78.168 227.473 77.496C226.203 76.824 224.635 76.3013 222.769 75.928C220.977 75.48 218.849 75.256 216.385 75.256C211.382 75.256 207.574 76.1893 204.961 78.056C202.422 79.9227 201.153 82.424 201.153 85.56C201.153 86.9787 201.377 88.136 201.825 89.032C202.347 89.928 203.019 90.6747 203.841 91.272C204.662 91.7947 205.595 92.2053 206.641 92.504C207.761 92.728 208.918 92.952 210.113 93.176L218.289 94.52C220.155 94.8187 222.059 95.2293 224.001 95.752C226.017 96.2 227.846 96.9467 229.489 97.992C231.131 98.9627 232.475 100.344 233.521 102.136C234.641 103.853 235.201 106.131 235.201 108.968C235.201 111.955 234.566 114.643 233.297 117.032C232.102 119.421 230.347 121.475 228.033 123.192C225.793 124.835 223.067 126.104 219.857 127C216.721 127.896 213.211 128.344 209.329 128.344ZM273.237 128.344C270.623 128.344 268.57 127.635 267.077 126.216C265.658 124.797 264.949 122.744 264.949 120.056C264.949 119.533 264.949 118.824 264.949 117.928C265.023 117.032 265.135 116.285 265.285 115.688L272.005 76.712H255.317L256.549 69.208H268.309C270.25 69.208 271.669 68.8347 272.565 68.088C273.535 67.2667 274.207 65.8853 274.581 63.944L277.157 48.824H285.445L281.973 69.208H305.829L304.597 76.712H280.741L273.573 119.496L275.813 120.84L301.013 104.04L305.381 109.64L292.725 118.6C290.111 120.467 287.834 122.035 285.893 123.304C284.026 124.499 282.309 125.469 280.741 126.216C279.247 126.963 277.903 127.485 276.709 127.784C275.514 128.157 274.357 128.344 273.237 128.344ZM343.305 128.344C339.572 128.344 336.286 127.747 333.449 126.552C330.686 125.357 328.372 123.715 326.505 121.624C324.638 119.459 323.22 116.883 322.249 113.896C321.278 110.835 320.793 107.512 320.793 103.928C320.793 98.4027 321.577 93.4373 323.145 89.032C324.713 84.552 326.841 80.744 329.529 77.608C332.292 74.472 335.502 72.0827 339.161 70.44C342.82 68.7227 346.777 67.864 351.033 67.864C354.766 67.864 358.052 68.4613 360.889 69.656C363.726 70.8507 366.078 72.5307 367.945 74.696C369.886 76.7867 371.305 79.3627 372.201 82.424C373.172 85.4107 373.657 88.696 373.657 92.28C373.657 97.8053 372.873 102.808 371.305 107.288C369.737 111.693 367.572 115.464 364.809 118.6C362.121 121.736 358.91 124.163 355.177 125.88C351.518 127.523 347.561 128.344 343.305 128.344ZM343.753 120.728C349.204 120.728 353.534 119.085 356.745 115.8C360.03 112.44 362.158 107.885 363.129 102.136L364.249 95.416C364.473 94.072 364.622 92.952 364.697 92.056C364.772 91.16 364.809 90.376 364.809 89.704C364.809 84.776 363.54 81.192 361.001 78.952C358.462 76.6373 355.028 75.48 350.697 75.48C345.246 75.48 340.878 77.16 337.593 80.52C334.382 83.8053 332.292 88.3227 331.321 94.072L330.201 100.792C329.977 102.136 329.828 103.256 329.753 104.152C329.678 105.048 329.641 105.832 329.641 106.504C329.641 111.432 330.91 115.053 333.449 117.368C335.988 119.608 339.422 120.728 343.753 120.728ZM400.717 127L409.117 76.712H392.877L394.109 69.208H419.085L416.509 84.664H417.069C418.04 82.3493 419.16 80.2587 420.429 78.392C421.699 76.4507 423.155 74.808 424.797 73.464C426.515 72.12 428.456 71.0747 430.621 70.328C432.787 69.5813 435.251 69.208 438.013 69.208H446.749L445.293 77.944H435.437C432.077 77.944 429.277 78.4293 427.037 79.4C424.797 80.296 422.819 81.752 421.101 83.768C420.728 84.216 420.205 84.8507 419.533 85.672C418.936 86.4187 418.301 87.352 417.629 88.472C416.957 89.592 416.323 90.8613 415.725 92.28C415.203 93.6987 414.792 95.2293 414.493 96.872L409.453 127H400.717ZM478.962 128.344C471.644 128.344 466.007 126.328 462.05 122.296C458.092 118.189 456.114 111.955 456.114 103.592C456.114 98.3653 456.898 93.5867 458.466 89.256C460.034 84.8507 462.199 81.08 464.962 77.944C467.799 74.7333 471.159 72.2693 475.042 70.552C478.999 68.76 483.292 67.864 487.922 67.864C490.759 67.864 493.372 68.2 495.762 68.872C498.151 69.544 500.204 70.552 501.922 71.896C503.714 73.1653 505.095 74.7707 506.066 76.712C507.036 78.6533 507.522 80.8933 507.522 83.432C507.522 85.448 507.036 87.5387 506.066 89.704C505.17 91.8693 503.228 93.8853 500.242 95.752C497.33 97.6187 493.074 99.1867 487.474 100.456C481.948 101.725 474.594 102.472 465.41 102.696C465.335 103.293 465.298 103.853 465.298 104.376C465.298 104.824 465.298 105.123 465.298 105.272C465.298 107.288 465.484 109.229 465.858 111.096C466.231 112.963 466.94 114.643 467.986 116.136C469.031 117.555 470.487 118.712 472.354 119.608C474.22 120.429 476.684 120.84 479.746 120.84C481.836 120.84 483.703 120.616 485.346 120.168C487.063 119.645 488.668 118.899 490.162 117.928C491.73 116.883 493.223 115.576 494.642 114.008C496.135 112.365 497.703 110.387 499.346 108.072L505.505 111.88C502.22 117.256 498.487 121.363 494.306 124.2C490.199 126.963 485.084 128.344 478.962 128.344ZM487.138 75.144C481.314 75.144 476.572 76.8987 472.914 80.408C469.255 83.9173 467.015 88.9573 466.194 95.528L466.082 96.648C473.1 96.424 478.738 95.9013 482.994 95.08C487.324 94.184 490.61 93.1387 492.85 91.944C495.164 90.7493 496.695 89.4427 497.442 88.024C498.188 86.6053 498.562 85.1867 498.562 83.768C498.562 82.5733 498.338 81.4533 497.89 80.408C497.516 79.3627 496.882 78.4667 495.986 77.72C495.09 76.8987 493.895 76.264 492.402 75.816C490.983 75.368 489.228 75.144 487.138 75.144ZM522.15 96.984L523.494 88.92H576.694L575.35 96.984H522.15ZM612.266 128.344C606.666 128.344 601.775 127.411 597.594 125.544C593.487 123.677 590.165 120.989 587.626 117.48L594.122 112.328C596.362 115.165 598.975 117.331 601.962 118.824C604.949 120.243 608.645 120.952 613.05 120.952C618.202 120.952 622.234 119.981 625.146 118.04C628.058 116.099 629.514 113.373 629.514 109.864C629.514 107.176 628.693 105.347 627.05 104.376C625.482 103.331 623.503 102.621 621.114 102.248L612.714 101.016C610.623 100.717 608.533 100.307 606.442 99.784C604.426 99.1867 602.597 98.328 600.954 97.208C599.386 96.088 598.079 94.6693 597.034 92.952C596.063 91.16 595.578 88.92 595.578 86.232C595.578 83.1707 596.213 80.52 597.482 78.28C598.826 75.9653 600.618 74.0613 602.858 72.568C605.098 71 607.711 69.8427 610.698 69.096C613.685 68.2747 616.895 67.864 620.33 67.864C625.407 67.864 629.738 68.648 633.322 70.216C636.906 71.784 639.781 73.9493 641.946 76.712L635.786 82.088C635.263 81.3413 634.554 80.5573 633.658 79.736C632.837 78.9147 631.754 78.168 630.41 77.496C629.141 76.824 627.573 76.3013 625.706 75.928C623.914 75.48 621.786 75.256 619.322 75.256C614.319 75.256 610.511 76.1893 607.898 78.056C605.359 79.9227 604.09 82.424 604.09 85.56C604.09 86.9787 604.314 88.136 604.762 89.032C605.285 89.928 605.957 90.6747 606.778 91.272C607.599 91.7947 608.533 92.2053 609.578 92.504C610.698 92.728 611.855 92.952 613.05 93.176L621.226 94.52C623.093 94.8187 624.997 95.2293 626.938 95.752C628.954 96.2 630.783 96.9467 632.426 97.992C634.069 98.9627 635.413 100.344 636.458 102.136C637.578 103.853 638.138 106.131 638.138 108.968C638.138 111.955 637.503 114.643 636.234 117.032C635.039 119.421 633.285 121.475 630.97 123.192C628.73 124.835 626.005 126.104 622.794 127C619.658 127.896 616.149 128.344 612.266 128.344ZM679.646 128.344C676.062 128.344 672.889 127.747 670.126 126.552C667.438 125.357 665.161 123.715 663.294 121.624C661.502 119.459 660.121 116.883 659.15 113.896C658.254 110.835 657.806 107.512 657.806 103.928C657.806 98.4027 658.59 93.4373 660.158 89.032C661.726 84.552 663.854 80.744 666.542 77.608C669.23 74.472 672.366 72.0827 675.95 70.44C679.609 68.7227 683.492 67.864 687.598 67.864C690.66 67.864 693.31 68.2373 695.55 68.984C697.865 69.7307 699.844 70.7387 701.486 72.008C703.129 73.2027 704.436 74.6587 705.406 76.376C706.452 78.0933 707.236 79.8853 707.758 81.752L700.254 84.664C699.134 81.08 697.454 78.6533 695.214 77.384C693.049 76.1147 690.174 75.48 686.59 75.48C681.662 75.48 677.63 77.0853 674.494 80.296C671.433 83.5067 669.38 88.136 668.334 94.184L667.214 100.904C666.99 102.248 666.841 103.293 666.766 104.04C666.692 104.787 666.654 105.533 666.654 106.28C666.654 111.208 667.924 114.867 670.462 117.256C673.076 119.571 676.51 120.728 680.766 120.728C682.036 120.728 683.305 120.579 684.574 120.28C685.918 119.981 687.337 119.347 688.83 118.376C690.398 117.405 692.078 115.987 693.87 114.12C695.662 112.253 697.716 109.752 700.03 106.616L706.302 110.312C704.51 113.224 702.681 115.837 700.814 118.152C698.948 120.392 696.932 122.259 694.766 123.752C692.676 125.245 690.361 126.365 687.822 127.112C685.358 127.933 682.633 128.344 679.646 128.344ZM736.499 127L744.899 76.712H728.659L729.891 69.208H754.867L752.291 84.664H752.851C753.821 82.3493 754.941 80.2587 756.211 78.392C757.48 76.4507 758.936 74.808 760.579 73.464C762.296 72.12 764.237 71.0747 766.403 70.328C768.568 69.5813 771.032 69.208 773.795 69.208H782.531L781.075 77.944H771.219C767.859 77.944 765.059 78.4293 762.819 79.4C760.579 80.296 758.6 81.752 756.883 83.768C756.509 84.216 755.987 84.8507 755.315 85.672C754.717 86.4187 754.083 87.352 753.411 88.472C752.739 89.592 752.104 90.8613 751.507 92.28C750.984 93.6987 750.573 95.2293 750.275 96.872L745.235 127H736.499ZM813.399 128.344C809.665 128.344 806.38 127.747 803.543 126.552C800.78 125.357 798.465 123.715 796.599 121.624C794.732 119.459 793.313 116.883 792.343 113.896C791.372 110.835 790.887 107.512 790.887 103.928C790.887 98.4027 791.671 93.4373 793.239 89.032C794.807 84.552 796.935 80.744 799.623 77.608C802.385 74.472 805.596 72.0827 809.255 70.44C812.913 68.7227 816.871 67.864 821.127 67.864C824.86 67.864 828.145 68.4613 830.983 69.656C833.82 70.8507 836.172 72.5307 838.039 74.696C839.98 76.7867 841.399 79.3627 842.295 82.424C843.265 85.4107 843.751 88.696 843.751 92.28C843.751 97.8053 842.967 102.808 841.399 107.288C839.831 111.693 837.665 115.464 834.903 118.6C832.215 121.736 829.004 124.163 825.271 125.88C821.612 127.523 817.655 128.344 813.399 128.344ZM813.847 120.728C819.297 120.728 823.628 119.085 826.839 115.8C830.124 112.44 832.252 107.885 833.223 102.136L834.343 95.416C834.567 94.072 834.716 92.952 834.791 92.056C834.865 91.16 834.903 90.376 834.903 89.704C834.903 84.776 833.633 81.192 831.095 78.952C828.556 76.6373 825.121 75.48 820.791 75.48C815.34 75.48 810.972 77.16 807.687 80.52C804.476 83.8053 802.385 88.3227 801.415 94.072L800.295 100.792C800.071 102.136 799.921 103.256 799.847 104.152C799.772 105.048 799.735 105.832 799.735 106.504C799.735 111.432 801.004 115.053 803.543 117.368C806.081 119.608 809.516 120.728 813.847 120.728ZM878.763 128.344C875.702 128.344 873.536 127.597 872.267 126.104C870.998 124.611 870.363 122.707 870.363 120.392C870.363 119.869 870.363 119.272 870.363 118.6C870.438 117.928 870.55 117.331 870.699 116.808L883.243 51.624H862.859L864.091 44.12H893.547L878.987 119.72L881.787 120.616L904.747 101.128L909.787 106.056L898.139 116.584C895.451 119.048 893.136 121.064 891.195 122.632C889.254 124.125 887.536 125.32 886.043 126.216C884.624 127.037 883.318 127.597 882.123 127.896C881.003 128.195 879.883 128.344 878.763 128.344ZM945.919 128.344C942.858 128.344 940.693 127.597 939.423 126.104C938.154 124.611 937.519 122.707 937.519 120.392C937.519 119.869 937.519 119.272 937.519 118.6C937.594 117.928 937.706 117.331 937.855 116.808L950.399 51.624H930.015L931.247 44.12H960.703L946.143 119.72L948.943 120.616L971.903 101.128L976.943 106.056L965.295 116.584C962.607 119.048 960.293 121.064 958.351 122.632C956.41 124.125 954.693 125.32 953.199 126.216C951.781 127.037 950.474 127.597 949.279 127.896C948.159 128.195 947.039 128.344 945.919 128.344Z" fill="black"/>
</svg>
