<svg width="1010" height="174" viewBox="0 0 1010 174" fill="none" xmlns="http://www.w3.org/2000/svg">
<rect width="1010" height="174" fill="white"/>
<path d="M10.5927 128.356L20.8705 66.8577H1L2.50742 57.6808H33.0669L29.915 76.5824H30.6002C31.7879 73.7518 33.1582 71.195 34.7113 68.9122C36.2644 66.5381 38.0459 64.5293 40.0558 62.8856C42.1571 61.242 44.5324 59.9636 47.1818 59.0505C49.8312 58.1374 52.846 57.6808 56.2263 57.6808H66.9153L65.1338 68.3644H53.0744C48.9633 68.3644 45.5374 68.9579 42.7966 70.1449C40.0558 71.2407 37.6348 73.0213 35.5336 75.4867C35.0768 76.0346 34.4373 76.8107 33.615 77.8152C32.8842 78.7283 32.1076 79.8697 31.2854 81.2394C30.4632 82.609 29.6866 84.1613 28.9558 85.8963C28.3162 87.6312 27.8138 89.5031 27.4483 91.512L21.2816 128.356H10.5927Z" fill="black"/>
<path d="M98.1064 130C89.1533 130 82.2557 127.535 77.4137 122.604C72.5717 117.582 70.1507 109.957 70.1507 99.7301C70.1507 93.3382 71.1099 87.4942 73.0285 82.1981C74.947 76.8107 77.5964 72.1995 80.9767 68.3644C84.4483 64.4379 88.5594 61.4246 93.3101 59.3245C98.1521 57.133 103.405 56.0372 109.069 56.0372C112.541 56.0372 115.739 56.4481 118.662 57.2699C121.586 58.0917 124.098 59.3245 126.199 60.9681C128.392 62.5204 130.082 64.4836 131.27 66.8577C132.457 69.2318 133.051 71.9712 133.051 75.0758C133.051 77.5412 132.457 80.098 131.27 82.746C130.173 85.3941 127.798 87.8595 124.144 90.1423C120.581 92.4251 115.373 94.3426 108.521 95.8949C101.761 97.4472 92.7619 98.3604 81.5248 98.6343C81.4335 99.3648 81.3878 100.05 81.3878 100.689C81.3878 101.237 81.3878 101.602 81.3878 101.785C81.3878 104.25 81.6162 106.624 82.073 108.907C82.5298 111.19 83.3977 113.244 84.6767 115.07C85.9557 116.805 87.7372 118.221 90.0212 119.316C92.3051 120.321 95.32 120.823 99.0657 120.823C101.624 120.823 103.908 120.549 105.918 120.001C108.019 119.362 109.983 118.449 111.81 117.262C113.729 115.984 115.556 114.386 117.292 112.468C119.119 110.459 121.037 108.039 123.047 105.209L130.584 109.866C126.565 116.44 121.997 121.462 116.881 124.932C111.856 128.311 105.598 130 98.1064 130ZM108.11 64.9402C100.984 64.9402 95.1829 67.086 90.7064 71.3777C86.2298 75.6693 83.489 81.8329 82.4841 89.8683L82.347 91.238C90.9348 90.9641 97.8323 90.3249 103.04 89.3205C108.339 88.2247 112.358 86.9464 115.099 85.4854C117.931 84.0244 119.804 82.4264 120.718 80.6915C121.631 78.9566 122.088 77.2216 122.088 75.4867C122.088 74.0257 121.814 72.656 121.266 71.3777C120.809 70.0993 120.032 69.0035 118.936 68.0904C117.84 67.086 116.378 66.3098 114.551 65.762C112.815 65.2141 110.668 64.9402 108.11 64.9402Z" fill="black"/>
<path d="M170.82 130C163.968 130 157.984 128.859 152.868 126.576C147.843 124.293 143.778 121.006 140.672 116.714L148.62 110.414C151.361 113.883 154.558 116.531 158.213 118.358C161.867 120.093 166.389 120.96 171.779 120.96C178.083 120.96 183.016 119.773 186.579 117.399C190.142 115.025 191.924 111.692 191.924 107.4C191.924 104.113 190.919 101.876 188.909 100.689C186.991 99.4105 184.57 98.543 181.646 98.0864L171.368 96.5798C168.81 96.2145 166.252 95.7123 163.694 95.0731C161.227 94.3426 158.989 93.2926 156.979 91.9229C155.061 90.5532 153.462 88.8183 152.183 86.7181C150.995 84.5266 150.401 81.7872 150.401 78.5C150.401 74.7562 151.178 71.5146 152.731 68.7753C154.375 65.9446 156.568 63.6161 159.309 61.7899C162.05 59.8723 165.247 58.457 168.902 57.5439C172.556 56.5395 176.484 56.0372 180.687 56.0372C186.899 56.0372 192.198 56.996 196.583 58.9136C200.968 60.8311 204.486 63.4792 207.135 66.8577L199.598 73.4322C198.959 72.5191 198.091 71.5603 196.994 70.5558C195.989 69.5514 194.665 68.6383 193.02 67.8165C191.467 66.9947 189.549 66.3555 187.265 65.8989C185.072 65.3511 182.468 65.0771 179.453 65.0771C173.332 65.0771 168.673 66.2185 165.476 68.5013C162.369 70.7841 160.816 73.8431 160.816 77.6782C160.816 79.4131 161.09 80.8285 161.639 81.9242C162.278 83.0199 163.1 83.9331 164.105 84.6636C165.11 85.3027 166.252 85.805 167.531 86.1702C168.902 86.4441 170.318 86.7181 171.779 86.992L181.783 88.6356C184.067 89.0009 186.397 89.5031 188.772 90.1423C191.239 90.6902 193.477 91.6033 195.487 92.8816C197.497 94.0687 199.141 95.758 200.42 97.9495C201.791 100.05 202.476 102.835 202.476 106.305C202.476 109.957 201.699 113.244 200.146 116.166C198.684 119.088 196.538 121.599 193.705 123.699C190.965 125.708 187.63 127.261 183.702 128.356C179.865 129.452 175.571 130 170.82 130Z" fill="black"/>
<path d="M240.793 130C237.595 130 235.083 129.133 233.256 127.398C231.52 125.663 230.652 123.152 230.652 119.864C230.652 119.225 230.652 118.358 230.652 117.262C230.743 116.166 230.881 115.253 231.063 114.523L239.286 66.8577H218.867L220.374 57.6808H234.763C237.139 57.6808 238.874 57.2243 239.971 56.3112C241.158 55.3067 241.981 53.6175 242.437 51.2433L245.589 32.7527H255.73L251.482 57.6808H280.671L279.164 66.8577H249.974L241.204 119.18L243.945 120.823L274.778 100.278L280.123 107.126L264.638 118.084C261.44 120.367 258.654 122.284 256.278 123.836C253.994 125.297 251.893 126.484 249.974 127.398C248.147 128.311 246.503 128.95 245.041 129.315C243.579 129.772 242.163 130 240.793 130Z" fill="black"/>
<path d="M318.303 130C313.735 130 309.715 129.27 306.244 127.809C302.863 126.348 300.031 124.339 297.747 121.782C295.463 119.134 293.727 115.984 292.54 112.331C291.352 108.587 290.758 104.524 290.758 100.141C290.758 93.3839 291.718 87.3116 293.636 81.9242C295.555 76.4455 298.158 71.7886 301.447 67.9535C304.828 64.1184 308.756 61.1964 313.233 59.1875C317.709 57.0873 322.551 56.0372 327.759 56.0372C332.326 56.0372 336.346 56.7677 339.818 58.2287C343.29 59.6897 346.167 61.7442 348.451 64.3923C350.827 66.949 352.562 70.0993 353.659 73.8431C354.846 77.4956 355.44 81.5133 355.44 85.8963C355.44 92.6534 354.481 98.7713 352.562 104.25C350.644 109.637 347.994 114.249 344.614 118.084C341.325 121.919 337.397 124.887 332.829 126.987C328.352 128.996 323.51 130 318.303 130ZM318.851 120.686C325.52 120.686 330.819 118.677 334.747 114.66C338.767 110.551 341.371 104.98 342.559 97.9495L343.929 89.7314C344.203 88.0878 344.386 86.7181 344.477 85.6223C344.569 84.5266 344.614 83.5678 344.614 82.746C344.614 76.7194 343.061 72.3364 339.955 69.5971C336.849 66.7664 332.646 65.3511 327.347 65.3511C320.678 65.3511 315.334 67.4056 311.314 71.5146C307.386 75.5324 304.828 81.0567 303.64 88.0878L302.269 96.3058C301.995 97.9495 301.813 99.3191 301.721 100.415C301.63 101.511 301.584 102.469 301.584 103.291C301.584 109.318 303.137 113.746 306.244 116.577C309.35 119.316 313.552 120.686 318.851 120.686Z" fill="black"/>
<path d="M380.328 128.356L390.605 66.8577H370.735L372.242 57.6808H402.802L399.65 76.5824H400.335C401.523 73.7518 402.893 71.195 404.446 68.9122C405.999 66.5381 407.781 64.5293 409.791 62.8856C411.892 61.242 414.267 59.9636 416.917 59.0505C419.566 58.1374 422.581 57.6808 425.961 57.6808H436.65L434.869 68.3644H422.809C418.698 68.3644 415.272 68.9579 412.532 70.1449C409.791 71.2407 407.37 73.0213 405.269 75.4867C404.812 76.0346 404.172 76.8107 403.35 77.8152C402.619 78.7283 401.843 79.8697 401.02 81.2394C400.198 82.609 399.422 84.1613 398.691 85.8963C398.051 87.6312 397.549 89.5031 397.183 91.512L391.017 128.356H380.328Z" fill="black"/>
<path d="M467.841 130C458.888 130 451.991 127.535 447.149 122.604C442.307 117.582 439.886 109.957 439.886 99.7301C439.886 93.3382 440.845 87.4942 442.763 82.1981C444.682 76.8107 447.331 72.1995 450.712 68.3644C454.183 64.4379 458.294 61.4246 463.045 59.3245C467.887 57.133 473.14 56.0372 478.804 56.0372C482.276 56.0372 485.474 56.4481 488.397 57.2699C491.321 58.0917 493.833 59.3245 495.934 60.9681C498.127 62.5204 499.817 64.4836 501.005 66.8577C502.192 69.2318 502.786 71.9712 502.786 75.0758C502.786 77.5412 502.192 80.098 501.005 82.746C499.908 85.3941 497.533 87.8595 493.879 90.1423C490.316 92.4251 485.108 94.3426 478.256 95.8949C471.496 97.4472 462.497 98.3604 451.26 98.6343C451.168 99.3648 451.123 100.05 451.123 100.689C451.123 101.237 451.123 101.602 451.123 101.785C451.123 104.25 451.351 106.624 451.808 108.907C452.265 111.19 453.133 113.244 454.412 115.07C455.691 116.805 457.472 118.221 459.756 119.316C462.04 120.321 465.055 120.823 468.801 120.823C471.359 120.823 473.643 120.549 475.653 120.001C477.754 119.362 479.718 118.449 481.545 117.262C483.464 115.984 485.291 114.386 487.027 112.468C488.854 110.459 490.772 108.039 492.782 105.209L500.319 109.866C496.3 116.44 491.732 121.462 486.616 124.932C481.591 128.311 475.333 130 467.841 130ZM477.845 64.9402C470.719 64.9402 464.918 67.086 460.441 71.3777C455.965 75.6693 453.224 81.8329 452.219 89.8683L452.082 91.238C460.67 90.9641 467.567 90.3249 472.775 89.3205C478.074 88.2247 482.093 86.9464 484.834 85.4854C487.666 84.0244 489.539 82.4264 490.453 80.6915C491.366 78.9566 491.823 77.2216 491.823 75.4867C491.823 74.0257 491.549 72.656 491.001 71.3777C490.544 70.0993 489.767 69.0035 488.671 68.0904C487.575 67.086 486.113 66.3098 484.286 65.762C482.55 65.2141 480.403 64.9402 477.845 64.9402Z" fill="black"/>
<path d="M525.344 92.3338L527.262 81.1024H566.455L564.537 92.3338H525.344Z" fill="black"/>
<path d="M614.502 130C607.65 130 601.666 128.859 596.55 126.576C591.525 124.293 587.46 121.006 584.354 116.714L592.302 110.414C595.043 113.883 598.24 116.531 601.895 118.358C605.549 120.093 610.071 120.96 615.461 120.96C621.765 120.96 626.698 119.773 630.261 117.399C633.824 115.025 635.606 111.692 635.606 107.4C635.606 104.113 634.601 101.876 632.591 100.689C630.672 99.4105 628.251 98.543 625.328 98.0864L615.05 96.5798C612.492 96.2145 609.934 95.7123 607.376 95.0731C604.909 94.3426 602.671 93.2926 600.661 91.9229C598.743 90.5532 597.144 88.8183 595.865 86.7181C594.677 84.5266 594.083 81.7872 594.083 78.5C594.083 74.7562 594.86 71.5146 596.413 68.7753C598.057 65.9446 600.25 63.6161 602.991 61.7899C605.732 59.8723 608.929 58.457 612.583 57.5439C616.238 56.5395 620.166 56.0372 624.369 56.0372C630.581 56.0372 635.88 56.996 640.265 58.9136C644.65 60.8311 648.168 63.4792 650.817 66.8577L643.28 73.4322C642.64 72.5191 641.773 71.5603 640.676 70.5558C639.671 69.5514 638.347 68.6383 636.702 67.8165C635.149 66.9947 633.231 66.3555 630.947 65.8989C628.754 65.3511 626.15 65.0771 623.135 65.0771C617.014 65.0771 612.355 66.2185 609.158 68.5013C606.051 70.7841 604.498 73.8431 604.498 77.6782C604.498 79.4131 604.772 80.8285 605.32 81.9242C605.96 83.0199 606.782 83.9331 607.787 84.6636C608.792 85.3027 609.934 85.805 611.213 86.1702C612.583 86.4441 614 86.7181 615.461 86.992L625.465 88.6356C627.749 89.0009 630.079 89.5031 632.454 90.1423C634.921 90.6902 637.159 91.6033 639.169 92.8816C641.179 94.0687 642.823 95.758 644.102 97.9495C645.473 100.05 646.158 102.835 646.158 106.305C646.158 109.957 645.381 113.244 643.828 116.166C642.366 119.088 640.219 121.599 637.387 123.699C634.647 125.708 631.312 127.261 627.384 128.356C623.546 129.452 619.253 130 614.502 130Z" fill="black"/>
<path d="M688.723 130C684.338 130 680.455 129.27 677.075 127.809C673.786 126.348 670.999 124.339 668.716 121.782C666.523 119.134 664.833 115.984 663.645 112.331C662.549 108.587 662.001 104.524 662.001 100.141C662.001 93.3839 662.96 87.3116 664.878 81.9242C666.797 76.4455 669.401 71.7886 672.69 67.9535C675.978 64.1184 679.816 61.1964 684.201 59.1875C688.677 57.0873 693.428 56.0372 698.453 56.0372C702.198 56.0372 705.442 56.4938 708.182 57.4069C711.015 58.32 713.436 59.5527 715.445 61.105C717.455 62.566 719.054 64.3466 720.242 66.4468C721.521 68.547 722.48 70.7385 723.12 73.0213L713.938 76.5824C712.568 72.1995 710.512 69.2318 707.771 67.6795C705.122 66.1272 701.605 65.3511 697.219 65.3511C691.19 65.3511 686.256 67.3143 682.419 71.2407C678.674 75.1671 676.161 80.8285 674.882 88.2247L673.512 96.4428C673.238 98.0864 673.055 99.3648 672.964 100.278C672.872 101.191 672.827 102.104 672.827 103.017C672.827 109.044 674.38 113.518 677.486 116.44C680.684 119.271 684.886 120.686 690.093 120.686C691.647 120.686 693.2 120.504 694.753 120.138C696.397 119.773 698.133 118.997 699.96 117.81C701.879 116.623 703.934 114.888 706.127 112.605C708.319 110.322 710.832 107.263 713.664 103.428L721.338 107.948C719.145 111.509 716.907 114.705 714.623 117.536C712.339 120.275 709.873 122.558 707.223 124.384C704.665 126.211 701.833 127.58 698.727 128.493C695.712 129.498 692.377 130 688.723 130Z" fill="black"/>
<path d="M744.581 128.356L754.859 66.8577H734.988L736.496 57.6808H767.055L763.903 76.5824H764.589C765.776 73.7518 767.147 71.195 768.7 68.9122C770.253 66.5381 772.034 64.5293 774.044 62.8856C776.145 61.242 778.521 59.9636 781.17 59.0505C783.82 58.1374 786.834 57.6808 790.215 57.6808H800.904L799.122 68.3644H787.063C782.952 68.3644 779.526 68.9579 776.785 70.1449C774.044 71.2407 771.623 73.0213 769.522 75.4867C769.065 76.0346 768.426 76.8107 767.603 77.8152C766.873 78.7283 766.096 79.8697 765.274 81.2394C764.452 82.609 763.675 84.1613 762.944 85.8963C762.305 87.6312 761.802 89.5031 761.437 91.512L755.27 128.356H744.581Z" fill="black"/>
<path d="M830.45 130C825.882 130 821.863 129.27 818.391 127.809C815.011 126.348 812.179 124.339 809.895 121.782C807.611 119.134 805.875 115.984 804.687 112.331C803.5 108.587 802.906 104.524 802.906 100.141C802.906 93.3839 803.865 87.3116 805.783 81.9242C807.702 76.4455 810.306 71.7886 813.595 67.9535C816.975 64.1184 820.903 61.1964 825.38 59.1875C829.856 57.0873 834.698 56.0372 839.906 56.0372C844.474 56.0372 848.494 56.7677 851.965 58.2287C855.437 59.6897 858.315 61.7442 860.599 64.3923C862.974 66.949 864.71 70.0993 865.806 73.8431C866.994 77.4956 867.588 81.5133 867.588 85.8963C867.588 92.6534 866.628 98.7713 864.71 104.25C862.791 109.637 860.142 114.249 856.762 118.084C853.473 121.919 849.544 124.887 844.976 126.987C840.5 128.996 835.658 130 830.45 130ZM830.998 120.686C837.668 120.686 842.966 118.677 846.895 114.66C850.915 110.551 853.518 104.98 854.706 97.9495L856.076 89.7314C856.351 88.0878 856.533 86.7181 856.625 85.6223C856.716 84.5266 856.762 83.5678 856.762 82.746C856.762 76.7194 855.209 72.3364 852.102 69.5971C848.996 66.7664 844.794 65.3511 839.495 65.3511C832.826 65.3511 827.481 67.4056 823.461 71.5146C819.533 75.5324 816.975 81.0567 815.787 88.0878L814.417 96.3058C814.143 97.9495 813.96 99.3191 813.869 100.415C813.777 101.511 813.732 102.469 813.732 103.291C813.732 109.318 815.285 113.746 818.391 116.577C821.497 119.316 825.7 120.686 830.998 120.686Z" fill="black"/>
<path d="M898.094 130C894.348 130 891.698 129.087 890.145 127.261C888.592 125.434 887.816 123.106 887.816 120.275C887.816 119.636 887.816 118.906 887.816 118.084C887.907 117.262 888.044 116.531 888.227 115.892L903.575 36.1769H878.634L880.142 27H916.183L898.368 119.453L901.794 120.549L929.886 96.7168L936.053 102.743L921.801 115.618C918.512 118.632 915.68 121.097 913.305 123.015C910.929 124.841 908.828 126.302 907.001 127.398C905.265 128.402 903.666 129.087 902.205 129.452C900.834 129.817 899.464 130 898.094 130Z" fill="black"/>
<path d="M972.041 130C968.295 130 965.645 129.087 964.092 127.261C962.539 125.434 961.763 123.106 961.763 120.275C961.763 119.636 961.763 118.906 961.763 118.084C961.854 117.262 961.991 116.531 962.174 115.892L977.522 36.1769H952.581L954.089 27H990.13L972.315 119.453L975.741 120.549L1003.83 96.7168L1010 102.743L995.748 115.618C992.459 118.632 989.627 121.097 987.252 123.015C984.876 124.841 982.775 126.302 980.948 127.398C979.212 128.402 977.613 129.087 976.152 129.452C974.781 129.817 973.411 130 972.041 130Z" fill="black"/>
</svg>
