<svg width="1010" height="174" viewBox="0 0 1010 174" fill="none" xmlns="http://www.w3.org/2000/svg">
<g clip-path="url(#clip0_6_20)">
<rect width="1010" height="174" fill="white"/>
<path d="M8.894 132L18.119 76.773H0.283997L1.637 68.532H29.066L26.237 85.506H26.852C27.918 82.964 29.148 80.668 30.542 78.618C31.936 76.486 33.535 74.682 35.339 73.206C37.225 71.73 39.357 70.582 41.735 69.762C44.113 68.942 46.819 68.532 49.853 68.532H59.447L57.848 78.126H47.024C43.334 78.126 40.259 78.659 37.799 79.725C35.339 80.709 33.166 82.308 31.28 84.522C30.87 85.014 30.296 85.711 29.558 86.613C28.902 87.433 28.205 88.458 27.467 89.688C26.729 90.918 26.032 92.312 25.376 93.87C24.802 95.428 24.351 97.109 24.023 98.913L18.488 132H8.894Z" fill="black"/>
<path d="M94.823 133.476C86.787 133.476 80.5959 131.262 76.2499 126.834C71.9039 122.324 69.7309 115.477 69.7309 106.293C69.7309 100.553 70.5919 95.305 72.3139 90.549C74.0359 85.711 76.414 81.57 79.448 78.126C82.564 74.6 86.254 71.894 90.518 70.008C94.864 68.04 99.5789 67.056 104.663 67.056C107.779 67.056 110.649 67.425 113.273 68.163C115.897 68.901 118.152 70.008 120.038 71.484C122.006 72.878 123.523 74.641 124.589 76.773C125.655 78.905 126.188 81.365 126.188 84.153C126.188 86.367 125.655 88.663 124.589 91.041C123.605 93.419 121.473 95.633 118.193 97.683C114.995 99.733 110.321 101.455 104.171 102.849C98.103 104.243 90.0259 105.063 79.9399 105.309C79.8579 105.965 79.8169 106.58 79.8169 107.154C79.8169 107.646 79.8169 107.974 79.8169 108.138C79.8169 110.352 80.022 112.484 80.432 114.534C80.842 116.584 81.621 118.429 82.769 120.069C83.917 121.627 85.5159 122.898 87.5659 123.882C89.6159 124.784 92.322 125.235 95.684 125.235C97.98 125.235 100.03 124.989 101.834 124.497C103.72 123.923 105.483 123.103 107.123 122.037C108.845 120.889 110.485 119.454 112.043 117.732C113.683 115.928 115.405 113.755 117.209 111.213L123.974 115.395C120.366 121.299 116.266 125.809 111.674 128.925C107.164 131.959 101.547 133.476 94.823 133.476ZM103.802 75.051C97.4059 75.051 92.1989 76.978 88.1809 80.832C84.1629 84.686 81.7029 90.221 80.8009 97.437L80.6779 98.667C88.3859 98.421 94.577 97.847 99.251 96.945C104.007 95.961 107.615 94.813 110.075 93.501C112.617 92.189 114.298 90.754 115.118 89.196C115.938 87.638 116.348 86.08 116.348 84.522C116.348 83.21 116.102 81.98 115.61 80.832C115.2 79.684 114.503 78.7 113.519 77.88C112.535 76.978 111.223 76.281 109.583 75.789C108.025 75.297 106.098 75.051 103.802 75.051Z" fill="black"/>
<path d="M167.468 133.476C161.318 133.476 155.947 132.451 151.355 130.401C146.845 128.351 143.196 125.399 140.408 121.545L147.542 115.887C150.002 119.003 152.872 121.381 156.152 123.021C159.432 124.579 163.491 125.358 168.329 125.358C173.987 125.358 178.415 124.292 181.613 122.16C184.811 120.028 186.41 117.035 186.41 113.181C186.41 110.229 185.508 108.22 183.704 107.154C181.982 106.006 179.809 105.227 177.185 104.817L167.96 103.464C165.664 103.136 163.368 102.685 161.072 102.111C158.858 101.455 156.849 100.512 155.045 99.282C153.323 98.052 151.888 96.494 150.74 94.608C149.674 92.64 149.141 90.18 149.141 87.228C149.141 83.866 149.838 80.955 151.232 78.495C152.708 75.953 154.676 73.862 157.136 72.222C159.596 70.5 162.466 69.229 165.746 68.409C169.026 67.507 172.552 67.056 176.324 67.056C181.9 67.056 186.656 67.917 190.592 69.639C194.528 71.361 197.685 73.739 200.063 76.773L193.298 82.677C192.724 81.857 191.945 80.996 190.961 80.094C190.059 79.192 188.87 78.372 187.394 77.634C186 76.896 184.278 76.322 182.228 75.912C180.26 75.42 177.923 75.174 175.217 75.174C169.723 75.174 165.541 76.199 162.671 78.249C159.883 80.299 158.489 83.046 158.489 86.49C158.489 88.048 158.735 89.319 159.227 90.303C159.801 91.287 160.539 92.107 161.441 92.763C162.343 93.337 163.368 93.788 164.516 94.116C165.746 94.362 167.017 94.608 168.329 94.854L177.308 96.33C179.358 96.658 181.449 97.109 183.581 97.683C185.795 98.175 187.804 98.995 189.608 100.143C191.412 101.209 192.888 102.726 194.036 104.694C195.266 106.58 195.881 109.081 195.881 112.197C195.881 115.477 195.184 118.429 193.79 121.053C192.478 123.677 190.551 125.932 188.009 127.818C185.549 129.622 182.556 131.016 179.03 132C175.586 132.984 171.732 133.476 167.468 133.476Z" fill="black"/>
<path d="M237.653 133.476C234.783 133.476 232.528 132.697 230.888 131.139C229.33 129.581 228.551 127.326 228.551 124.374C228.551 123.8 228.551 123.021 228.551 122.037C228.633 121.053 228.756 120.233 228.92 119.577L236.3 76.773H217.973L219.326 68.532H232.241C234.373 68.532 235.931 68.122 236.915 67.302C237.981 66.4 238.719 64.883 239.129 62.751L241.958 46.146H251.06L247.247 68.532H273.446L272.093 76.773H245.894L238.022 123.759L240.482 125.235L268.157 106.785L272.954 112.935L259.055 122.775C256.185 124.825 253.684 126.547 251.552 127.941C249.502 129.253 247.616 130.319 245.894 131.139C244.254 131.959 242.778 132.533 241.466 132.861C240.154 133.271 238.883 133.476 237.653 133.476Z" fill="black"/>
<path d="M314.603 133.476C310.503 133.476 306.895 132.82 303.779 131.508C300.745 130.196 298.203 128.392 296.153 126.096C294.103 123.718 292.545 120.889 291.479 117.609C290.413 114.247 289.88 110.598 289.88 106.662C289.88 100.594 290.741 95.141 292.463 90.303C294.185 85.383 296.522 81.201 299.474 77.757C302.508 74.313 306.034 71.689 310.052 69.885C314.07 67.999 318.416 67.056 323.09 67.056C327.19 67.056 330.798 67.712 333.914 69.024C337.03 70.336 339.613 72.181 341.663 74.559C343.795 76.855 345.353 79.684 346.337 83.046C347.403 86.326 347.936 89.934 347.936 93.87C347.936 99.938 347.075 105.432 345.353 110.352C343.631 115.19 341.253 119.331 338.219 122.775C335.267 126.219 331.741 128.884 327.641 130.77C323.623 132.574 319.277 133.476 314.603 133.476ZM315.095 125.112C321.081 125.112 325.837 123.308 329.363 119.7C332.971 116.01 335.308 111.008 336.374 104.694L337.604 97.314C337.85 95.838 338.014 94.608 338.096 93.624C338.178 92.64 338.219 91.779 338.219 91.041C338.219 85.629 336.825 81.693 334.037 79.233C331.249 76.691 327.477 75.42 322.721 75.42C316.735 75.42 311.938 77.265 308.33 80.955C304.804 84.563 302.508 89.524 301.442 95.838L300.212 103.218C299.966 104.694 299.802 105.924 299.72 106.908C299.638 107.892 299.597 108.753 299.597 109.491C299.597 114.903 300.991 118.88 303.779 121.422C306.567 123.882 310.339 125.112 315.095 125.112Z" fill="black"/>
<path d="M377.654 132L386.879 76.773H369.044L370.397 68.532H397.826L394.997 85.506H395.612C396.678 82.964 397.908 80.668 399.302 78.618C400.696 76.486 402.295 74.682 404.099 73.206C405.985 71.73 408.117 70.582 410.495 69.762C412.873 68.942 415.579 68.532 418.613 68.532H428.207L426.608 78.126H415.784C412.094 78.126 409.019 78.659 406.559 79.725C404.099 80.709 401.926 82.308 400.04 84.522C399.63 85.014 399.056 85.711 398.318 86.613C397.662 87.433 396.965 88.458 396.227 89.688C395.489 90.918 394.792 92.312 394.136 93.87C393.562 95.428 393.111 97.109 392.783 98.913L387.248 132H377.654Z" fill="black"/>
<path d="M463.583 133.476C455.547 133.476 449.356 131.262 445.01 126.834C440.664 122.324 438.491 115.477 438.491 106.293C438.491 100.553 439.352 95.305 441.074 90.549C442.796 85.711 445.174 81.57 448.208 78.126C451.324 74.6 455.014 71.894 459.278 70.008C463.624 68.04 468.339 67.056 473.423 67.056C476.539 67.056 479.409 67.425 482.033 68.163C484.657 68.901 486.912 70.008 488.798 71.484C490.766 72.878 492.283 74.641 493.349 76.773C494.415 78.905 494.948 81.365 494.948 84.153C494.948 86.367 494.415 88.663 493.349 91.041C492.365 93.419 490.233 95.633 486.953 97.683C483.755 99.733 479.081 101.455 472.931 102.849C466.863 104.243 458.786 105.063 448.7 105.309C448.618 105.965 448.577 106.58 448.577 107.154C448.577 107.646 448.577 107.974 448.577 108.138C448.577 110.352 448.782 112.484 449.192 114.534C449.602 116.584 450.381 118.429 451.529 120.069C452.677 121.627 454.276 122.898 456.326 123.882C458.376 124.784 461.082 125.235 464.444 125.235C466.74 125.235 468.79 124.989 470.594 124.497C472.48 123.923 474.243 123.103 475.883 122.037C477.605 120.889 479.245 119.454 480.803 117.732C482.443 115.928 484.165 113.755 485.969 111.213L492.734 115.395C489.126 121.299 485.026 125.809 480.434 128.925C475.924 131.959 470.307 133.476 463.583 133.476ZM472.562 75.051C466.166 75.051 460.959 76.978 456.941 80.832C452.923 84.686 450.463 90.221 449.561 97.437L449.438 98.667C457.146 98.421 463.337 97.847 468.011 96.945C472.767 95.961 476.375 94.813 478.835 93.501C481.377 92.189 483.058 90.754 483.878 89.196C484.698 87.638 485.108 86.08 485.108 84.522C485.108 83.21 484.862 81.98 484.37 80.832C483.96 79.684 483.263 78.7 482.279 77.88C481.295 76.978 479.983 76.281 478.343 75.789C476.785 75.297 474.858 75.051 472.562 75.051Z" fill="black"/>
<path d="M511.013 99.036L512.489 90.18H570.914L569.438 99.036H511.013Z" fill="black"/>
<path d="M609.98 133.476C603.83 133.476 598.459 132.451 593.867 130.401C589.357 128.351 585.708 125.399 582.92 121.545L590.054 115.887C592.514 119.003 595.384 121.381 598.664 123.021C601.944 124.579 606.003 125.358 610.841 125.358C616.499 125.358 620.927 124.292 624.125 122.16C627.323 120.028 628.922 117.035 628.922 113.181C628.922 110.229 628.02 108.22 626.216 107.154C624.494 106.006 622.321 105.227 619.697 104.817L610.472 103.464C608.176 103.136 605.88 102.685 603.584 102.111C601.37 101.455 599.361 100.512 597.557 99.282C595.835 98.052 594.4 96.494 593.252 94.608C592.186 92.64 591.653 90.18 591.653 87.228C591.653 83.866 592.35 80.955 593.744 78.495C595.22 75.953 597.188 73.862 599.648 72.222C602.108 70.5 604.978 69.229 608.258 68.409C611.538 67.507 615.064 67.056 618.836 67.056C624.412 67.056 629.168 67.917 633.104 69.639C637.04 71.361 640.197 73.739 642.575 76.773L635.81 82.677C635.236 81.857 634.457 80.996 633.473 80.094C632.571 79.192 631.382 78.372 629.906 77.634C628.512 76.896 626.79 76.322 624.74 75.912C622.772 75.42 620.435 75.174 617.729 75.174C612.235 75.174 608.053 76.199 605.183 78.249C602.395 80.299 601.001 83.046 601.001 86.49C601.001 88.048 601.247 89.319 601.739 90.303C602.313 91.287 603.051 92.107 603.953 92.763C604.855 93.337 605.88 93.788 607.028 94.116C608.258 94.362 609.529 94.608 610.841 94.854L619.82 96.33C621.87 96.658 623.961 97.109 626.093 97.683C628.307 98.175 630.316 98.995 632.12 100.143C633.924 101.209 635.4 102.726 636.548 104.694C637.778 106.58 638.393 109.081 638.393 112.197C638.393 115.477 637.696 118.429 636.302 121.053C634.99 123.677 633.063 125.932 630.521 127.818C628.061 129.622 625.068 131.016 621.542 132C618.098 132.984 614.244 133.476 609.98 133.476Z" fill="black"/>
<path d="M683.978 133.476C680.042 133.476 676.557 132.82 673.523 131.508C670.571 130.196 668.07 128.392 666.02 126.096C664.052 123.718 662.535 120.889 661.469 117.609C660.485 114.247 659.993 110.598 659.993 106.662C659.993 100.594 660.854 95.141 662.576 90.303C664.298 85.383 666.635 81.201 669.587 77.757C672.539 74.313 675.983 71.689 679.919 69.885C683.937 67.999 688.201 67.056 692.711 67.056C696.073 67.056 698.984 67.466 701.444 68.286C703.986 69.106 706.159 70.213 707.963 71.607C709.767 72.919 711.202 74.518 712.268 76.404C713.416 78.29 714.277 80.258 714.851 82.308L706.61 85.506C705.38 81.57 703.535 78.905 701.075 77.511C698.697 76.117 695.54 75.42 691.604 75.42C686.192 75.42 681.764 77.183 678.32 80.709C674.958 84.235 672.703 89.319 671.555 95.961L670.325 103.341C670.079 104.817 669.915 105.965 669.833 106.785C669.751 107.605 669.71 108.425 669.71 109.245C669.71 114.657 671.104 118.675 673.892 121.299C676.762 123.841 680.534 125.112 685.208 125.112C686.602 125.112 687.996 124.948 689.39 124.62C690.866 124.292 692.424 123.595 694.064 122.529C695.786 121.463 697.631 119.905 699.599 117.855C701.567 115.805 703.822 113.058 706.364 109.614L713.252 113.673C711.284 116.871 709.275 119.741 707.225 122.283C705.175 124.743 702.961 126.793 700.583 128.433C698.287 130.073 695.745 131.303 692.957 132.123C690.251 133.025 687.258 133.476 683.978 133.476Z" fill="black"/>
<path d="M746.414 132L755.639 76.773H737.804L739.157 68.532H766.586L763.757 85.506H764.372C765.438 82.964 766.668 80.668 768.062 78.618C769.456 76.486 771.055 74.682 772.859 73.206C774.745 71.73 776.877 70.582 779.255 69.762C781.633 68.942 784.339 68.532 787.373 68.532H796.967L795.368 78.126H784.544C780.854 78.126 777.779 78.659 775.319 79.725C772.859 80.709 770.685 82.308 768.799 84.522C768.389 85.014 767.816 85.711 767.078 86.613C766.422 87.433 765.725 88.458 764.987 89.688C764.249 90.918 763.552 92.312 762.896 93.87C762.322 95.428 761.871 97.109 761.543 98.913L756.008 132H746.414Z" fill="black"/>
<path d="M830.866 133.476C826.766 133.476 823.158 132.82 820.042 131.508C817.008 130.196 814.467 128.392 812.417 126.096C810.367 123.718 808.808 120.889 807.742 117.609C806.676 114.247 806.143 110.598 806.143 106.662C806.143 100.594 807.005 95.141 808.727 90.303C810.449 85.383 812.785 81.201 815.737 77.757C818.771 74.313 822.297 71.689 826.315 69.885C830.333 67.999 834.679 67.056 839.353 67.056C843.453 67.056 847.061 67.712 850.177 69.024C853.293 70.336 855.876 72.181 857.926 74.559C860.058 76.855 861.616 79.684 862.6 83.046C863.666 86.326 864.199 89.934 864.199 93.87C864.199 99.938 863.339 105.432 861.617 110.352C859.895 115.19 857.516 119.331 854.482 122.775C851.53 126.219 848.004 128.884 843.904 130.77C839.886 132.574 835.54 133.476 830.866 133.476ZM831.358 125.112C837.344 125.112 842.1 123.308 845.626 119.7C849.234 116.01 851.572 111.008 852.638 104.694L853.867 97.314C854.113 95.838 854.277 94.608 854.359 93.624C854.441 92.64 854.482 91.779 854.482 91.041C854.482 85.629 853.088 81.693 850.3 79.233C847.512 76.691 843.74 75.42 838.984 75.42C832.998 75.42 828.202 77.265 824.594 80.955C821.068 84.563 818.772 89.524 817.706 95.838L816.475 103.218C816.229 104.694 816.065 105.924 815.983 106.908C815.901 107.892 815.86 108.753 815.86 109.491C815.86 114.903 817.254 118.88 820.042 121.422C822.83 123.882 826.602 125.112 831.358 125.112Z" fill="black"/>
<path d="M902.65 133.476C899.288 133.476 896.91 132.656 895.516 131.016C894.122 129.376 893.425 127.285 893.425 124.743C893.425 124.169 893.425 123.513 893.425 122.775C893.507 122.037 893.63 121.381 893.794 120.807L907.57 49.221H885.184L886.537 40.98H918.886L902.896 124.005L905.971 124.989L931.186 103.587L936.721 108.999L923.929 120.561C920.977 123.267 918.435 125.481 916.303 127.203C914.171 128.843 912.285 130.155 910.645 131.139C909.087 132.041 907.652 132.656 906.34 132.984C905.11 133.312 903.88 133.476 902.65 133.476Z" fill="black"/>
<path d="M976.402 133.476C973.04 133.476 970.662 132.656 969.268 131.016C967.874 129.376 967.177 127.285 967.177 124.743C967.177 124.169 967.177 123.513 967.177 122.775C967.259 122.037 967.382 121.381 967.546 120.807L981.322 49.221H958.936L960.289 40.98H992.638L976.648 124.005L979.723 124.989L1004.94 103.587L1010.47 108.999L997.681 120.561C994.729 123.267 992.187 125.481 990.055 127.203C987.923 128.843 986.037 130.155 984.397 131.139C982.839 132.041 981.404 132.656 980.092 132.984C978.862 133.312 977.632 133.476 976.402 133.476Z" fill="black"/>
</g>
<defs>
<clipPath id="clip0_6_20">
<rect width="1010" height="174" fill="white"/>
</clipPath>
</defs>
</svg>
