<svg width="1011" height="94" viewBox="0 0 1011 94" fill="none" xmlns="http://www.w3.org/2000/svg">
<path d="M8.894 92L18.119 36.773H0.283997L1.637 28.532H29.066L26.237 45.506H26.852C27.918 42.964 29.148 40.668 30.542 38.618C31.936 36.486 33.535 34.682 35.339 33.206C37.225 31.73 39.357 30.582 41.735 29.762C44.113 28.942 46.819 28.532 49.853 28.532H59.447L57.848 38.126H47.024C43.334 38.126 40.259 38.659 37.799 39.725C35.339 40.709 33.166 42.308 31.28 44.522C30.87 45.014 30.296 45.711 29.558 46.613C28.902 47.433 28.205 48.458 27.467 49.688C26.729 50.918 26.032 52.312 25.376 53.87C24.802 55.428 24.351 57.109 24.023 58.913L18.488 92H8.894Z" fill="black"/>
<path d="M94.823 93.476C86.787 93.476 80.5959 91.262 76.2499 86.834C71.9039 82.324 69.7309 75.477 69.7309 66.293C69.7309 60.553 70.5919 55.305 72.3139 50.549C74.0359 45.711 76.414 41.57 79.448 38.126C82.564 34.6 86.254 31.894 90.518 30.008C94.864 28.04 99.5789 27.056 104.663 27.056C107.779 27.056 110.649 27.425 113.273 28.163C115.897 28.901 118.152 30.008 120.038 31.484C122.006 32.878 123.523 34.641 124.589 36.773C125.655 38.905 126.188 41.365 126.188 44.153C126.188 46.367 125.655 48.663 124.589 51.041C123.605 53.419 121.473 55.633 118.193 57.683C114.995 59.733 110.321 61.455 104.171 62.849C98.103 64.243 90.0259 65.063 79.9399 65.309C79.8579 65.965 79.8169 66.58 79.8169 67.154C79.8169 67.646 79.8169 67.974 79.8169 68.138C79.8169 70.352 80.022 72.484 80.432 74.534C80.842 76.584 81.621 78.429 82.769 80.069C83.917 81.627 85.5159 82.898 87.5659 83.882C89.6159 84.784 92.322 85.235 95.684 85.235C97.98 85.235 100.03 84.989 101.834 84.497C103.72 83.923 105.483 83.103 107.123 82.037C108.845 80.889 110.485 79.454 112.043 77.732C113.683 75.928 115.405 73.755 117.209 71.213L123.974 75.395C120.366 81.299 116.266 85.809 111.674 88.925C107.164 91.959 101.547 93.476 94.823 93.476ZM103.802 35.051C97.4059 35.051 92.1989 36.978 88.1809 40.832C84.1629 44.686 81.7029 50.221 80.8009 57.437L80.6779 58.667C88.3859 58.421 94.577 57.847 99.251 56.945C104.007 55.961 107.615 54.813 110.075 53.501C112.617 52.189 114.298 50.754 115.118 49.196C115.938 47.638 116.348 46.08 116.348 44.522C116.348 43.21 116.102 41.98 115.61 40.832C115.2 39.684 114.503 38.7 113.519 37.88C112.535 36.978 111.223 36.281 109.583 35.789C108.025 35.297 106.098 35.051 103.802 35.051Z" fill="black"/>
<path d="M167.468 93.476C161.318 93.476 155.947 92.451 151.355 90.401C146.845 88.351 143.196 85.399 140.408 81.545L147.542 75.887C150.002 79.003 152.872 81.381 156.152 83.021C159.432 84.579 163.491 85.358 168.329 85.358C173.987 85.358 178.415 84.292 181.613 82.16C184.811 80.028 186.41 77.035 186.41 73.181C186.41 70.229 185.508 68.22 183.704 67.154C181.982 66.006 179.809 65.227 177.185 64.817L167.96 63.464C165.664 63.136 163.368 62.685 161.072 62.111C158.858 61.455 156.849 60.512 155.045 59.282C153.323 58.052 151.888 56.494 150.74 54.608C149.674 52.64 149.141 50.18 149.141 47.228C149.141 43.866 149.838 40.955 151.232 38.495C152.708 35.953 154.676 33.862 157.136 32.222C159.596 30.5 162.466 29.229 165.746 28.409C169.026 27.507 172.552 27.056 176.324 27.056C181.9 27.056 186.656 27.917 190.592 29.639C194.528 31.361 197.685 33.739 200.063 36.773L193.298 42.677C192.724 41.857 191.945 40.996 190.961 40.094C190.059 39.192 188.87 38.372 187.394 37.634C186 36.896 184.278 36.322 182.228 35.912C180.26 35.42 177.923 35.174 175.217 35.174C169.723 35.174 165.541 36.199 162.671 38.249C159.883 40.299 158.489 43.046 158.489 46.49C158.489 48.048 158.735 49.319 159.227 50.303C159.801 51.287 160.539 52.107 161.441 52.763C162.343 53.337 163.368 53.788 164.516 54.116C165.746 54.362 167.017 54.608 168.329 54.854L177.308 56.33C179.358 56.658 181.449 57.109 183.581 57.683C185.795 58.175 187.804 58.995 189.608 60.143C191.412 61.209 192.888 62.726 194.036 64.694C195.266 66.58 195.881 69.081 195.881 72.197C195.881 75.477 195.184 78.429 193.79 81.053C192.478 83.677 190.551 85.932 188.009 87.818C185.549 89.622 182.556 91.016 179.03 92C175.586 92.984 171.732 93.476 167.468 93.476Z" fill="black"/>
<path d="M237.653 93.476C234.783 93.476 232.528 92.697 230.888 91.139C229.33 89.581 228.551 87.326 228.551 84.374C228.551 83.8 228.551 83.021 228.551 82.037C228.633 81.053 228.756 80.233 228.92 79.577L236.3 36.773H217.973L219.326 28.532H232.241C234.373 28.532 235.931 28.122 236.915 27.302C237.981 26.4 238.719 24.883 239.129 22.751L241.958 6.14601H251.06L247.247 28.532H273.446L272.093 36.773H245.894L238.022 83.759L240.482 85.235L268.157 66.785L272.954 72.935L259.055 82.775C256.185 84.825 253.684 86.547 251.552 87.941C249.502 89.253 247.616 90.319 245.894 91.139C244.254 91.959 242.778 92.533 241.466 92.861C240.154 93.271 238.883 93.476 237.653 93.476Z" fill="black"/>
<path d="M314.603 93.476C310.503 93.476 306.895 92.82 303.779 91.508C300.745 90.196 298.203 88.392 296.153 86.096C294.103 83.718 292.545 80.889 291.479 77.609C290.413 74.247 289.88 70.598 289.88 66.662C289.88 60.594 290.741 55.141 292.463 50.303C294.185 45.383 296.522 41.201 299.474 37.757C302.508 34.313 306.034 31.689 310.052 29.885C314.07 27.999 318.416 27.056 323.09 27.056C327.19 27.056 330.798 27.712 333.914 29.024C337.03 30.336 339.613 32.181 341.663 34.559C343.795 36.855 345.353 39.684 346.337 43.046C347.403 46.326 347.936 49.934 347.936 53.87C347.936 59.938 347.075 65.432 345.353 70.352C343.631 75.19 341.253 79.331 338.219 82.775C335.267 86.219 331.741 88.884 327.641 90.77C323.623 92.574 319.277 93.476 314.603 93.476ZM315.095 85.112C321.081 85.112 325.837 83.308 329.363 79.7C332.971 76.01 335.308 71.008 336.374 64.694L337.604 57.314C337.85 55.838 338.014 54.608 338.096 53.624C338.178 52.64 338.219 51.779 338.219 51.041C338.219 45.629 336.825 41.693 334.037 39.233C331.249 36.691 327.477 35.42 322.721 35.42C316.735 35.42 311.938 37.265 308.33 40.955C304.804 44.563 302.508 49.524 301.442 55.838L300.212 63.218C299.966 64.694 299.802 65.924 299.72 66.908C299.638 67.892 299.597 68.753 299.597 69.491C299.597 74.903 300.991 78.88 303.779 81.422C306.567 83.882 310.339 85.112 315.095 85.112Z" fill="black"/>
<path d="M377.654 92L386.879 36.773H369.044L370.397 28.532H397.826L394.997 45.506H395.612C396.678 42.964 397.908 40.668 399.302 38.618C400.696 36.486 402.295 34.682 404.099 33.206C405.985 31.73 408.117 30.582 410.495 29.762C412.873 28.942 415.579 28.532 418.613 28.532H428.207L426.608 38.126H415.784C412.094 38.126 409.019 38.659 406.559 39.725C404.099 40.709 401.926 42.308 400.04 44.522C399.63 45.014 399.056 45.711 398.318 46.613C397.662 47.433 396.965 48.458 396.227 49.688C395.489 50.918 394.792 52.312 394.136 53.87C393.562 55.428 393.111 57.109 392.783 58.913L387.248 92H377.654Z" fill="black"/>
<path d="M463.583 93.476C455.547 93.476 449.356 91.262 445.01 86.834C440.664 82.324 438.491 75.477 438.491 66.293C438.491 60.553 439.352 55.305 441.074 50.549C442.796 45.711 445.174 41.57 448.208 38.126C451.324 34.6 455.014 31.894 459.278 30.008C463.624 28.04 468.339 27.056 473.423 27.056C476.539 27.056 479.409 27.425 482.033 28.163C484.657 28.901 486.912 30.008 488.798 31.484C490.766 32.878 492.283 34.641 493.349 36.773C494.415 38.905 494.948 41.365 494.948 44.153C494.948 46.367 494.415 48.663 493.349 51.041C492.365 53.419 490.233 55.633 486.953 57.683C483.755 59.733 479.081 61.455 472.931 62.849C466.863 64.243 458.786 65.063 448.7 65.309C448.618 65.965 448.577 66.58 448.577 67.154C448.577 67.646 448.577 67.974 448.577 68.138C448.577 70.352 448.782 72.484 449.192 74.534C449.602 76.584 450.381 78.429 451.529 80.069C452.677 81.627 454.276 82.898 456.326 83.882C458.376 84.784 461.082 85.235 464.444 85.235C466.74 85.235 468.79 84.989 470.594 84.497C472.48 83.923 474.243 83.103 475.883 82.037C477.605 80.889 479.245 79.454 480.803 77.732C482.443 75.928 484.165 73.755 485.969 71.213L492.734 75.395C489.126 81.299 485.026 85.809 480.434 88.925C475.924 91.959 470.307 93.476 463.583 93.476ZM472.562 35.051C466.166 35.051 460.959 36.978 456.941 40.832C452.923 44.686 450.463 50.221 449.561 57.437L449.438 58.667C457.146 58.421 463.337 57.847 468.011 56.945C472.767 55.961 476.375 54.813 478.835 53.501C481.377 52.189 483.058 50.754 483.878 49.196C484.698 47.638 485.108 46.08 485.108 44.522C485.108 43.21 484.862 41.98 484.37 40.832C483.96 39.684 483.263 38.7 482.279 37.88C481.295 36.978 479.983 36.281 478.343 35.789C476.785 35.297 474.858 35.051 472.562 35.051Z" fill="black"/>
<path d="M511.013 59.036L512.489 50.18H570.914L569.438 59.036H511.013Z" fill="black"/>
<path d="M609.98 93.476C603.83 93.476 598.459 92.451 593.867 90.401C589.357 88.351 585.708 85.399 582.92 81.545L590.054 75.887C592.514 79.003 595.384 81.381 598.664 83.021C601.944 84.579 606.003 85.358 610.841 85.358C616.499 85.358 620.927 84.292 624.125 82.16C627.323 80.028 628.922 77.035 628.922 73.181C628.922 70.229 628.02 68.22 626.216 67.154C624.494 66.006 622.321 65.227 619.697 64.817L610.472 63.464C608.176 63.136 605.88 62.685 603.584 62.111C601.37 61.455 599.361 60.512 597.557 59.282C595.835 58.052 594.4 56.494 593.252 54.608C592.186 52.64 591.653 50.18 591.653 47.228C591.653 43.866 592.35 40.955 593.744 38.495C595.22 35.953 597.188 33.862 599.648 32.222C602.108 30.5 604.978 29.229 608.258 28.409C611.538 27.507 615.064 27.056 618.836 27.056C624.412 27.056 629.168 27.917 633.104 29.639C637.04 31.361 640.197 33.739 642.575 36.773L635.81 42.677C635.236 41.857 634.457 40.996 633.473 40.094C632.571 39.192 631.382 38.372 629.906 37.634C628.512 36.896 626.79 36.322 624.74 35.912C622.772 35.42 620.435 35.174 617.729 35.174C612.235 35.174 608.053 36.199 605.183 38.249C602.395 40.299 601.001 43.046 601.001 46.49C601.001 48.048 601.247 49.319 601.739 50.303C602.313 51.287 603.051 52.107 603.953 52.763C604.855 53.337 605.88 53.788 607.028 54.116C608.258 54.362 609.529 54.608 610.841 54.854L619.82 56.33C621.87 56.658 623.961 57.109 626.093 57.683C628.307 58.175 630.316 58.995 632.12 60.143C633.924 61.209 635.4 62.726 636.548 64.694C637.778 66.58 638.393 69.081 638.393 72.197C638.393 75.477 637.696 78.429 636.302 81.053C634.99 83.677 633.063 85.932 630.521 87.818C628.061 89.622 625.068 91.016 621.542 92C618.098 92.984 614.244 93.476 609.98 93.476Z" fill="black"/>
<path d="M683.978 93.476C680.042 93.476 676.557 92.82 673.523 91.508C670.571 90.196 668.07 88.392 666.02 86.096C664.052 83.718 662.535 80.889 661.469 77.609C660.485 74.247 659.993 70.598 659.993 66.662C659.993 60.594 660.854 55.141 662.576 50.303C664.298 45.383 666.635 41.201 669.587 37.757C672.539 34.313 675.983 31.689 679.919 29.885C683.937 27.999 688.201 27.056 692.711 27.056C696.073 27.056 698.984 27.466 701.444 28.286C703.986 29.106 706.159 30.213 707.963 31.607C709.767 32.919 711.202 34.518 712.268 36.404C713.416 38.29 714.277 40.258 714.851 42.308L706.61 45.506C705.38 41.57 703.535 38.905 701.075 37.511C698.697 36.117 695.54 35.42 691.604 35.42C686.192 35.42 681.764 37.183 678.32 40.709C674.958 44.235 672.703 49.319 671.555 55.961L670.325 63.341C670.079 64.817 669.915 65.965 669.833 66.785C669.751 67.605 669.71 68.425 669.71 69.245C669.71 74.657 671.104 78.675 673.892 81.299C676.762 83.841 680.534 85.112 685.208 85.112C686.602 85.112 687.996 84.948 689.39 84.62C690.866 84.292 692.424 83.595 694.064 82.529C695.786 81.463 697.631 79.905 699.599 77.855C701.567 75.805 703.822 73.058 706.364 69.614L713.252 73.673C711.284 76.871 709.275 79.741 707.225 82.283C705.175 84.743 702.961 86.793 700.583 88.433C698.287 90.073 695.745 91.303 692.957 92.123C690.251 93.025 687.258 93.476 683.978 93.476Z" fill="black"/>
<path d="M746.414 92L755.639 36.773H737.804L739.157 28.532H766.586L763.757 45.506H764.372C765.438 42.964 766.668 40.668 768.062 38.618C769.456 36.486 771.055 34.682 772.859 33.206C774.745 31.73 776.877 30.582 779.255 29.762C781.633 28.942 784.339 28.532 787.373 28.532H796.967L795.368 38.126H784.544C780.854 38.126 777.779 38.659 775.319 39.725C772.859 40.709 770.685 42.308 768.799 44.522C768.389 45.014 767.816 45.711 767.078 46.613C766.422 47.433 765.725 48.458 764.987 49.688C764.249 50.918 763.552 52.312 762.896 53.87C762.322 55.428 761.871 57.109 761.543 58.913L756.008 92H746.414Z" fill="black"/>
<path d="M830.866 93.476C826.766 93.476 823.158 92.82 820.042 91.508C817.008 90.196 814.467 88.392 812.417 86.096C810.367 83.718 808.808 80.889 807.742 77.609C806.676 74.247 806.143 70.598 806.143 66.662C806.143 60.594 807.005 55.141 808.727 50.303C810.449 45.383 812.785 41.201 815.737 37.757C818.771 34.313 822.297 31.689 826.315 29.885C830.333 27.999 834.679 27.056 839.353 27.056C843.453 27.056 847.061 27.712 850.177 29.024C853.293 30.336 855.876 32.181 857.926 34.559C860.058 36.855 861.616 39.684 862.6 43.046C863.666 46.326 864.199 49.934 864.199 53.87C864.199 59.938 863.339 65.432 861.617 70.352C859.895 75.19 857.516 79.331 854.482 82.775C851.53 86.219 848.004 88.884 843.904 90.77C839.886 92.574 835.54 93.476 830.866 93.476ZM831.358 85.112C837.344 85.112 842.1 83.308 845.626 79.7C849.234 76.01 851.572 71.008 852.638 64.694L853.867 57.314C854.113 55.838 854.277 54.608 854.359 53.624C854.441 52.64 854.482 51.779 854.482 51.041C854.482 45.629 853.088 41.693 850.3 39.233C847.512 36.691 843.74 35.42 838.984 35.42C832.998 35.42 828.202 37.265 824.594 40.955C821.068 44.563 818.772 49.524 817.706 55.838L816.475 63.218C816.229 64.694 816.065 65.924 815.983 66.908C815.901 67.892 815.86 68.753 815.86 69.491C815.86 74.903 817.254 78.88 820.042 81.422C822.83 83.882 826.602 85.112 831.358 85.112Z" fill="black"/>
<path d="M902.65 93.476C899.288 93.476 896.91 92.656 895.516 91.016C894.122 89.376 893.425 87.285 893.425 84.743C893.425 84.169 893.425 83.513 893.425 82.775C893.507 82.037 893.63 81.381 893.794 80.807L907.57 9.22101H885.184L886.537 0.980011H918.886L902.896 84.005L905.971 84.989L931.186 63.587L936.721 68.999L923.929 80.561C920.977 83.267 918.435 85.481 916.303 87.203C914.171 88.843 912.285 90.155 910.645 91.139C909.087 92.041 907.652 92.656 906.34 92.984C905.11 93.312 903.88 93.476 902.65 93.476Z" fill="black"/>
<path d="M976.402 93.476C973.04 93.476 970.662 92.656 969.268 91.016C967.874 89.376 967.177 87.285 967.177 84.743C967.177 84.169 967.177 83.513 967.177 82.775C967.259 82.037 967.382 81.381 967.546 80.807L981.322 9.22101H958.936L960.289 0.980011H992.638L976.648 84.005L979.723 84.989L1004.94 63.587L1010.47 68.999L997.681 80.561C994.729 83.267 992.187 85.481 990.055 87.203C987.923 88.843 986.037 90.155 984.397 91.139C982.839 92.041 981.404 92.656 980.092 92.984C978.862 93.312 977.632 93.476 976.402 93.476Z" fill="black"/>
</svg>
